<svg width="514" height="515" viewBox="0 0 514 515" fill="none" xmlns="http://www.w3.org/2000/svg">
<path d="M257.364 2.10416C222.328 37.6198 222.604 94.7865 257.984 129.964C293.364 165.141 350.531 165.089 385.843 129.844" stroke="#A9A9A9" stroke-width="2.66667" stroke-miterlimit="10" stroke-linejoin="round"/>
<path fill-rule="evenodd" clip-rule="evenodd" d="M129.364 386.104C80.8846 337.62 63.9523 265.906 85.6346 200.859C107.317 135.812 163.89 88.5989 231.765 78.901V78.9062C234.53 98.2656 243.494 116.208 257.307 130.047L257.338 332.594C209.208 332.604 163.051 351.724 129.02 385.755" fill="#FFD700"/>
<path d="M257.364 514.104L1.36426 258.104L257.364 2.10423L513.364 258.104L257.364 514.104Z" stroke="#A9A9A9" stroke-width="2.66667" stroke-miterlimit="10" stroke-linejoin="round"/>
<path d="M438.385 258.104C438.385 158.13 357.343 77.0833 257.364 77.0833C157.39 77.0833 76.3486 158.13 76.3486 258.104C76.3486 358.078 157.39 439.125 257.364 439.125C357.343 439.125 438.385 358.078 438.385 258.104Z" stroke="#A9A9A9" stroke-width="2.66667" stroke-miterlimit="10" stroke-linejoin="round"/>
<path d="M446.005 385.667C446.005 352.344 418.99 325.328 385.667 325.328C352.344 325.328 325.328 352.344 325.328 385.667C325.328 418.99 352.344 446.005 385.667 446.005C418.99 446.005 446.005 418.99 446.005 385.667Z" stroke="#A9A9A9" stroke-width="2.66667" stroke-miterlimit="10" stroke-linejoin="round"/>
<path d="M232.067 78.4688C236.916 112.406 260.521 140.693 293.047 151.531C325.567 162.375 361.427 153.906 385.666 129.667" stroke="black" stroke-width="6.66667" stroke-miterlimit="10" stroke-linejoin="round"/>
<path d="M385.667 129.667C427.125 171.125 445.964 230.078 436.229 287.896C426.495 345.714 389.391 395.245 336.641 420.844" stroke="black" stroke-width="6.66667" stroke-miterlimit="10" stroke-linejoin="round"/>
<path d="M420.625 434.849C393.547 454.094 356.005 447.833 336.641 420.844" stroke="black" stroke-width="6.66667" stroke-miterlimit="10" stroke-linejoin="round"/>
<path d="M420.624 434.849C395.104 382.089 345.624 344.948 287.838 335.177C230.046 325.411 171.109 344.224 129.666 385.667" stroke="black" stroke-width="6.66667" stroke-miterlimit="10" stroke-linejoin="round"/>
<path d="M129.02 385.755C80.7024 337.208 63.9263 265.552 85.6711 200.599C107.416 135.651 163.952 88.5365 231.76 78.8594" stroke="black" stroke-width="6.66667" stroke-miterlimit="10" stroke-linejoin="round"/>
<path d="M258.089 130.083L256.328 332.651" stroke="black" stroke-width="6.66667" stroke-miterlimit="10" stroke-linejoin="round"/>
<path d="M176.823 227.955C177.406 226.476 177.573 225.976 184.51 225.976V222.413C180.385 222.58 180.219 222.58 175.51 222.58C173.115 222.58 167.073 222.58 165.094 222.413V225.976C166.094 225.976 173.365 225.976 173.365 227.122C173.365 227.205 173.365 227.372 173.031 228.122L159.156 264.976L144.365 225.976H152.219V222.413C149.573 222.58 141.885 222.58 138.74 222.58C136.177 222.58 128.156 222.58 126.177 222.413V225.976H133.115L136.51 234.892L125.198 264.976L110.49 225.976H118.26V222.413C115.865 222.58 107.76 222.58 104.781 222.58C102.135 222.58 94.2812 222.58 92.2188 222.413V225.976H99.1562L118.823 277.872C119.323 279.267 119.573 279.851 121.385 279.851C123.219 279.851 123.448 279.267 123.948 277.934L138.323 239.851L152.781 277.934C153.281 279.267 153.531 279.851 155.344 279.851C156.927 279.851 157.323 279.517 157.906 277.934L176.823 227.955Z" fill="black"/>
<path d="M213.921 223.163C213.358 221.684 213.191 221.267 211.212 221.267C209.129 221.267 208.962 221.684 208.4 223.163L187.9 273.559C187.316 274.892 187.316 275.059 185.004 275.309C182.941 275.538 182.608 275.538 180.796 275.538H179.316V279.101C181.462 278.934 186.421 278.934 188.816 278.934C191.046 278.934 197.066 278.934 198.983 279.101V275.538C197.15 275.538 194.025 275.538 191.712 274.642C191.941 273.892 191.941 273.726 192.108 273.392L196.504 262.663H218.629L223.837 275.538H216.087V279.101C218.712 278.934 226.733 278.934 229.879 278.934C232.525 278.934 240.941 278.934 243.004 279.101V275.538H235.171L213.921 223.163ZM207.566 235.309L217.15 259.101H197.9L207.566 235.309Z" fill="black"/>
<path d="M313.24 225.976H319.844V222.413C317.781 222.58 309.281 222.58 306.635 222.58C302.344 222.58 295.406 222.58 291.344 222.413V225.976H302.74V266.788C302.74 274.559 298.948 277.372 294.656 277.372C294.073 277.372 290.281 277.372 287.052 275.309C290.031 274.559 291.427 272.163 291.427 269.684C291.427 265.642 288.198 263.809 285.656 263.809C282.677 263.809 279.781 265.872 279.781 269.684C279.781 275.872 286.135 280.101 295.073 280.101C305.635 280.101 313.24 275.309 313.24 266.788V225.976Z" fill="black"/>
<path d="M389.827 251.017C389.827 233.497 378.431 221.434 360.098 221.434C341.66 221.434 330.348 233.58 330.348 251.017C330.348 268.434 341.91 280.101 360.098 280.101C378.264 280.101 389.827 268.434 389.827 251.017ZM360.098 276.955C354.723 276.955 349.514 274.392 346.368 269.684C342.41 263.642 341.993 255.892 341.993 249.851C341.993 244.809 342.243 237.872 345.639 232.247C349.264 226.476 355.223 224.413 360.098 224.413C366.785 224.413 371.743 227.955 374.139 231.684C377.202 236.476 378.181 241.58 378.181 249.851C378.181 258.038 377.285 264.892 373.139 270.601C371.077 273.392 366.535 276.955 360.098 276.955Z" fill="black"/>
<path fill-rule="evenodd" clip-rule="evenodd" d="M236.219 78.8385C236.219 73.5052 228.219 73.5052 228.219 78.8385C228.219 84.1718 236.219 84.1718 236.219 78.8385Z" fill="black"/>
<path fill-rule="evenodd" clip-rule="evenodd" d="M389.844 129.844C389.844 124.51 381.844 124.51 381.844 129.844C381.844 135.177 389.844 135.177 389.844 129.844Z" fill="black"/>
<path fill-rule="evenodd" clip-rule="evenodd" d="M133.713 386.453C133.713 381.12 125.713 381.12 125.713 386.453C125.713 391.786 133.713 391.786 133.713 386.453Z" fill="black"/>
<path fill-rule="evenodd" clip-rule="evenodd" d="M340.641 420.844C340.641 415.51 332.641 415.51 332.641 420.844C332.641 426.177 340.641 426.177 340.641 420.844Z" fill="black"/>
<path fill-rule="evenodd" clip-rule="evenodd" d="M425.021 434.562C425.021 429.229 417.021 429.229 417.021 434.562C417.021 439.896 425.021 439.896 425.021 434.562Z" fill="black"/>
</svg>
