<svg width="287" height="60" viewBox="0 0 287 60" fill="none" xmlns="http://www.w3.org/2000/svg">
<path fill-rule="evenodd" clip-rule="evenodd" d="M138.886 29.5589H131.33V42.8399C131.33 45.3329 131.33 48.4399 127.757 48.4399C124.082 48.4399 124.082 45.3329 124.082 42.8399V29.5589H116.525V44.5129C116.525 51.2729 120.235 54.5169 127.723 54.5169C135.211 54.5169 138.886 51.2739 138.886 44.5129V29.5589ZM141.222 53.9369H148.023V44.5819C148.023 41.7479 149.569 41.1669 150.736 41.1669C152.729 41.1669 152.969 42.6019 152.969 44.6499V53.9369H159.77V41.7819C159.77 37.7189 156.851 35.7719 153.656 35.7719C150.943 35.7719 149.122 36.6949 147.851 38.4699H147.782V36.2169H141.222V53.9369ZM162.243 53.9369H169.044V36.2169H162.243V53.9369ZM162.243 34.3049H169.044V29.5589H162.243V34.3049ZM189.825 36.2169H182.887L180.07 47.0049H180.002L177.219 36.2149H170.04L175.879 53.9349H183.917L189.825 36.2149V36.2169ZM195.734 43.0799C196.043 41.1669 197.211 40.1089 199.237 40.1089C200.989 40.1089 202.226 41.4409 202.226 43.0789L195.734 43.0799ZM208.752 46.5959C208.752 39.6989 205.695 35.7729 198.619 35.7729C192.986 35.7729 189.207 39.9729 189.207 45.1279C189.207 51.0339 193.501 54.3799 199.203 54.3799C203.256 54.3799 207 52.6049 208.374 48.7809H202.02C201.47 49.6349 200.268 50.0449 199.169 50.0449C197.039 50.0449 195.871 48.6099 195.699 46.5959H208.752ZM210.229 53.9359H217.03V46.9369C217.03 43.1469 218.473 41.5769 221.151 41.5769C222.526 41.5769 223.144 41.7819 223.831 42.0209V36.0459C223.181 35.8692 222.512 35.7775 221.839 35.7729C219.366 35.7729 217.923 36.9329 216.824 39.0509H216.755V36.2169H210.229V53.9359ZM241.967 41.3719C241.795 36.8319 237.158 35.7719 233.311 35.7719C229.738 35.7719 224.896 36.9339 224.896 41.4069C224.896 44.4449 226.991 46.0839 232.178 46.9719C235.338 47.5179 235.921 47.8249 235.921 48.8499C235.921 49.8739 234.513 50.2149 233.62 50.2149C232.796 50.2149 232.143 50.0099 231.8 49.7029C231.284 49.2589 231.009 48.7469 230.975 48.1329H224.483C224.586 52.7069 229.189 54.3799 233.379 54.3799C237.708 54.3799 242.448 53.0499 242.448 48.1319C242.448 45.2299 240.456 43.8989 238.189 43.1819C235.921 42.4299 233.345 42.2939 232.212 41.8159C231.834 41.6459 231.422 41.4059 231.422 40.8939C231.422 39.7339 232.521 39.5289 233.483 39.5289C234.032 39.5289 234.582 39.6989 234.994 40.0409C235.441 40.3479 235.75 40.7909 235.784 41.3719H241.967ZM243.959 53.9369H250.76V36.2169H243.959V53.9369ZM243.958 34.3049H250.76V29.5589H243.958V34.3049ZM262.129 30.8219H255.328V36.2169H252.305V40.3819H255.328V48.8499C255.328 53.6969 258.523 54.1409 261.408 54.1409C262.85 54.1409 264.396 53.9369 265.77 53.9369V48.8149C265.258 48.8827 264.742 48.9168 264.225 48.9169C262.507 48.9169 262.129 48.2009 262.129 46.5619V40.3819H265.77V36.2169H262.129V30.8219ZM286.38 36.2169H279.339L276.453 46.3909H276.384L273.534 36.2169H266.251L269.274 44.3769C269.652 45.4009 272.262 51.9219 272.262 52.7759C272.262 53.5609 272.022 53.9019 271.61 54.1069C271.129 54.3469 270.236 54.2779 269.549 54.2779H267.969V59.6719H271.06C273.705 59.6719 276.453 59.7069 278.239 57.4879C279.304 56.1559 279.922 54.1419 280.472 52.5709L286.38 36.2169ZM116.594 24.7069H123.738V9.06888H123.807L128.066 24.7069H133.699L137.959 9.06888H138.028V24.7069H145.172V0.328881H134.421L130.917 14.6689H130.849L127.345 0.327881H116.594V24.7069ZM166.125 6.98688H159.324V16.3409C159.324 19.1749 157.778 19.7559 156.61 19.7559C154.618 19.7559 154.377 18.3219 154.377 16.2729V6.98688H147.576V19.1419C147.576 23.2039 150.496 25.1499 153.691 25.1499C156.404 25.1499 158.224 24.2279 159.495 22.4529H159.564V24.7069H166.125V6.98688ZM168.46 24.7069H175.262V17.7069C175.262 13.9169 176.704 12.3469 179.384 12.3469C180.757 12.3469 181.376 12.5519 182.063 12.7909V6.81488C181.413 6.63838 180.744 6.54662 180.071 6.54188C177.598 6.54188 176.155 7.70188 175.055 9.81888H174.987V6.98688H168.46V24.7069ZM201.648 0.328881H194.846V8.93288H194.778C193.747 7.42988 191.927 6.54288 189.9 6.54288C183.923 6.54288 182.309 11.5959 182.309 15.7609C182.309 20.1999 184.747 25.1509 189.797 25.1509C193.129 25.1509 194.16 23.8869 195.018 22.7609H195.087V24.7069H201.648V0.328881ZM195.087 15.8289C195.087 17.9459 194.537 20.2329 192.099 20.2329C189.66 20.2329 189.11 17.9459 189.11 15.8289C189.11 13.7469 189.66 11.4589 192.099 11.4589C194.537 11.4589 195.087 13.7469 195.087 15.8289ZM221.982 15.8289C221.982 10.9129 218.96 6.54288 212.262 6.54288C205.563 6.54288 202.541 10.9129 202.541 15.8299C202.541 20.7459 205.563 25.1499 212.262 25.1499C218.96 25.1499 221.982 20.7459 221.982 15.8299V15.8289ZM215.181 15.8289C215.181 17.7069 214.838 20.2329 212.262 20.2329C209.685 20.2329 209.342 17.7069 209.342 15.8289C209.342 13.9519 209.685 11.4589 212.262 11.4589C214.838 11.4589 215.181 13.9519 215.181 15.8289ZM242.214 13.7119C241.802 8.82988 237.817 6.54188 233.145 6.54188C227.787 6.54188 223.493 10.2639 223.493 15.8629C223.493 21.4629 227.787 25.1499 233.145 25.1499C237.955 25.1499 241.767 22.4529 242.42 17.6389H235.928C235.791 19.0389 234.76 20.2339 233.283 20.2339C230.672 20.2339 230.295 18.0139 230.295 15.8639C230.295 13.7119 230.672 11.4589 233.283 11.4589C234.004 11.4589 234.588 11.6639 235 12.0399C235.447 12.4149 235.688 12.9949 235.756 13.7119H242.214ZM243.862 24.7069H250.664V15.3509C250.664 12.5169 252.209 11.9369 253.377 11.9369C255.369 11.9369 255.61 13.3709 255.61 15.4199V24.7069H262.411V12.5519C262.411 8.48888 259.491 6.54188 256.297 6.54188C253.412 6.54188 251.9 7.53188 250.732 8.89788H250.664V0.327881H243.862V24.7069ZM104.156 30.3569V0.533881H88.9219V30.8179C88.9219 38.3499 84.9779 41.8849 78.9469 41.8849C72.9149 41.8849 68.9719 38.1969 68.9719 30.4339V0.533881H59.3599L59.3779 0.506881H42.5939L29.6039 21.4589L16.6159 0.506881H0.669922V54.3049H15.0949V22.6469L15.6809 23.5469L29.6049 44.7299H29.6609L41.9109 26.5099L43.7609 23.6999V23.7599L53.7389 8.90488V30.7409C53.7389 47.5729 63.4049 55.3359 78.7929 55.3359C94.1809 55.3359 104.157 47.7279 104.157 30.3559L104.156 30.3569Z" fill="#E12744"/>
</svg>
