<svg width="92" height="100" viewBox="0 0 92 100" fill="none" xmlns="http://www.w3.org/2000/svg">
<path d="M0.00195503 0.0493164H91.6717V99.9513H0.00195312L0.00195503 0.0493164Z" fill="white"/>
<path d="M91.6717 99.9513H0.00195312V0.0493164H91.6717V99.9513ZM2.42881 97.5245H89.2448V2.47607H2.42881V97.5245Z" fill="black"/>
<path d="M6.81836 32.7552V5.00098H7.42231L25.8955 26.276V5.00098H28.6311V32.7552H28.0081L9.68707 11.7389V32.7552H6.81836Z" fill="black"/>
<path d="M33.9336 5.00098H52.441V7.71801H37.1603V16.4152H52.3082V19.1343H37.1603V30.0393H52.3082V32.7554H33.9336V5.00098Z" fill="black"/>
<path d="M54.8398 5.00098H57.5509L62.9409 25.0014L70.5073 5.00098H71.0547L78.5333 25.0014L84.0163 5.00098H86.7065L79.1206 32.7554H78.6336L70.799 11.7552L62.8175 32.7554H62.3224L54.8398 5.00098Z" fill="black"/>
<path d="M28.3125 35.8984H46.4162V38.6146H31.4694V47.3132H46.2889V50.0303H31.4694V60.9349H46.2889V63.6531H28.3125V35.8984Z" fill="black"/>
<path d="M51.2871 63.6529V35.8984H56.8961C60.9424 35.8984 63.8787 36.2336 65.7071 36.8997C68.3309 37.8422 70.3807 39.4786 71.8591 41.8046C73.3365 44.132 74.0756 46.9067 74.0756 50.1254C74.0756 52.9061 73.4899 55.3532 72.3196 57.4647C71.1469 59.5795 69.627 61.1378 67.7582 62.1453C65.8876 63.1516 63.2667 63.6529 59.8934 63.6529H51.2871ZM53.8804 61.0313H57.0068C60.7463 61.0313 63.3385 60.7922 64.7863 60.3162C66.8212 59.6368 68.4231 58.4141 69.5862 56.649C70.7534 54.8806 71.3336 52.7241 71.3336 50.1717C71.3336 47.4955 70.7026 45.2083 69.4403 43.3114C68.1775 41.4117 66.4168 40.1119 64.1599 39.4065C62.4679 38.881 59.6788 38.6143 55.7925 38.6143H53.8804V61.0313Z" fill="black"/>
<path d="M78.4473 36.5225H81.0661V63.029H78.4473V36.5225Z" fill="black"/>
<path d="M24.4968 66.8103H4.61523V69.6181H13.0077V94.5845H15.8395V69.6181H24.4968V66.8103Z" fill="black"/>
<path d="M27.0273 66.8279H29.8009V94.5847H27.0273V66.8279Z" fill="black"/>
<path d="M46.5178 66.1321C50.3098 66.1321 53.4823 67.5347 56.0376 70.338C58.5905 73.1443 59.869 76.5958 59.869 80.6991C59.869 84.7593 58.5939 88.2077 56.0449 91.0358C53.4958 93.8654 50.389 95.2818 46.7217 95.2818C43.0096 95.2818 39.8759 93.8725 37.3219 91.0558C34.7674 88.2387 33.4902 84.8285 33.4902 80.8293C33.4902 78.1614 34.0718 75.6924 35.2346 73.4146C36.3994 71.1378 37.9852 69.3542 39.9944 68.0638C42.0043 66.7756 44.1797 66.1321 46.5178 66.1321ZM46.6282 68.83C44.7763 68.83 43.0202 69.3641 41.3616 70.4339C39.7019 71.5052 38.4065 72.9466 37.475 74.7586C36.5427 76.5726 36.0776 78.5919 36.0776 80.8195C36.0776 84.1189 37.1083 86.9035 39.1712 89.1759C41.2332 91.4475 43.7197 92.5858 46.6282 92.5858C48.5712 92.5858 50.3692 92.0608 52.0226 91.0157C53.6774 89.9725 54.967 88.5431 55.8918 86.7309C56.8184 84.9168 57.2822 82.9022 57.2822 80.6885C57.2822 78.4851 56.8181 76.4935 55.8918 74.7112C54.967 72.9299 53.6617 71.505 51.9812 70.4336C50.2997 69.3641 48.5165 68.83 46.6282 68.83Z" fill="black"/>
<path d="M63.3867 94.5849V66.8284H63.9904L82.4626 88.1042V66.8284H85.1989V94.5849H84.5775L66.254 73.5671V94.5849H63.3867Z" fill="black"/>
<path d="M20.4954 45.491C21.0323 46.3751 21.3414 47.4123 21.3414 48.5217C21.3414 51.7513 18.723 54.369 15.4942 54.369C13.5773 54.369 11.8752 53.4461 10.8086 52.0203C11.875 53.4466 13.5775 54.3701 15.4949 54.3701C18.7238 54.3701 21.3421 51.7524 21.3421 48.5232C21.3421 47.4131 21.0328 46.3753 20.4954 45.491Z" fill="black"/>
<path d="M20.4974 45.491C19.472 43.8025 17.6157 42.6738 15.4962 42.6738C12.2676 42.6738 9.64844 45.2931 9.64844 48.5217C9.64844 49.7334 10.0171 50.8589 10.6482 51.7922C10.6623 51.8131 10.6776 51.8331 10.692 51.8537C10.7309 51.9099 10.7699 51.9659 10.8106 52.0204C11.8773 53.4461 13.5793 54.369 15.4962 54.369C18.725 54.369 21.3434 51.7514 21.3434 48.5217C21.3434 47.4123 21.0343 46.3751 20.4974 45.491ZM15.4967 53.2222C13.2247 53.2222 11.3306 51.6102 10.8928 49.4693C10.83 49.1631 10.7973 48.8462 10.7973 48.5217C10.7973 45.9269 12.8997 43.8233 15.4959 43.8233C17.119 43.8233 18.5491 44.6454 19.3933 45.8957C19.9 46.6457 20.1958 47.5498 20.1958 48.5235C20.1958 51.1175 18.0932 53.2222 15.4967 53.2222Z" fill="#726658"/>
<path d="M15.4955 53.221C13.2239 53.221 11.3307 51.6095 10.8926 49.4692C11.3304 51.6103 13.2244 53.222 15.4965 53.222C18.093 53.222 20.1956 51.1174 20.1956 48.5231C20.1956 47.5494 19.8998 46.6455 19.3931 45.8953C19.8993 46.645 20.1949 47.5486 20.1949 48.5215C20.1946 51.1161 18.092 53.221 15.4955 53.221Z" fill="#726658"/>
<path d="M19.3929 45.8956C18.549 44.6454 17.1189 43.8232 15.4955 43.8232C12.8993 43.8232 10.7969 45.9269 10.7969 48.5216C10.7969 48.8461 10.8298 49.163 10.8924 49.4693C11.3305 51.6099 13.2238 53.2211 15.4953 53.2211C18.0918 53.2211 20.1944 51.1161 20.1944 48.5216C20.1947 47.549 19.8991 46.6456 19.3929 45.8956ZM15.4955 52.7966C13.1393 52.7966 11.2224 50.8786 11.2224 48.5209C11.2224 46.1649 13.1393 44.248 15.4955 44.248C17.853 44.248 19.7709 46.1649 19.7709 48.5209C19.7709 50.8786 17.853 52.7966 15.4955 52.7966Z" fill="#C2B59B"/>
<path d="M15.4946 45.3645C13.7541 45.3645 12.3379 46.7804 12.3379 48.521C12.3379 50.2632 13.7539 51.6803 15.4946 51.6803C17.2366 51.6803 18.6536 50.2632 18.6536 48.521C18.6536 46.7804 17.2366 45.3645 15.4946 45.3645Z" fill="#C2B59B"/>
<path d="M15.4938 44.2478C13.1376 44.2478 11.2207 46.1647 11.2207 48.5207C11.2207 50.8785 13.1376 52.7964 15.4938 52.7964C17.8513 52.7964 19.7692 50.8785 19.7692 48.5207C19.7692 46.1647 17.8513 44.2478 15.4938 44.2478ZM15.4938 45.3645C17.2358 45.3645 18.6528 46.7803 18.6528 48.5209C18.6528 50.2631 17.2358 51.6803 15.4938 51.6803C13.7534 51.6803 12.3371 50.2631 12.3371 48.5209C12.3371 46.7803 13.7534 45.3645 15.4938 45.3645Z" fill="#ED1C24"/>
</svg>
