<svg width="19" height="18" viewBox="0 0 19 18" fill="none" xmlns="http://www.w3.org/2000/svg">
<path fill-rule="evenodd" clip-rule="evenodd" d="M9.5 0.25C10.1904 0.25 10.75 0.809644 10.75 1.5V7.75H17C17.6904 7.75 18.25 8.30964 18.25 9C18.25 9.69036 17.6904 10.25 17 10.25H10.75V16.5C10.75 17.1904 10.1904 17.75 9.5 17.75C8.80964 17.75 8.25 17.1904 8.25 16.5V10.25H2C1.30964 10.25 0.75 9.69036 0.75 9C0.75 8.30964 1.30964 7.75 2 7.75L8.25 7.75V1.5C8.25 0.809644 8.80964 0.25 9.5 0.25Z" fill="black"/>
</svg>
